<?xml version="1.0" encoding="UTF-8" standalone="no"?>
<svg
   xmlns:dc="http://purl.org/dc/elements/1.1/"
   xmlns:cc="http://creativecommons.org/ns#"
   xmlns:rdf="http://www.w3.org/1999/02/22-rdf-syntax-ns#"
   xmlns:svg="http://www.w3.org/2000/svg"
   xmlns="http://www.w3.org/2000/svg"
   version="1.0"
   width="256"
   height="256"
   viewBox="0 0 204.8 204.8"
   preserveAspectRatio="xMidYMid meet"
   id="svg2">
  <defs
     id="defs12" />
  <metadata
     id="metadata4">
    <rdf:RDF>
      <cc:Work
         rdf:about="">
        <dc:format>image/svg+xml</dc:format>
        <dc:type
           rdf:resource="http://purl.org/dc/dcmitype/StillImage" />
        <dc:title></dc:title>
      </cc:Work>
    </rdf:RDF>
  </metadata>
  <g
     id="layer2"
     style="display:inline"
     transform="translate(0,-1075.2)" />
  <path
     style="opacity:1;fill:#000000;fill-opacity:0;stroke:#9494c3;stroke-width:1.8;stroke-linecap:round;stroke-linejoin:round;stroke-miterlimit:4;stroke-dasharray:3.2,3.2;stroke-dashoffset:0;stroke-opacity:1"
     d="m 72.14761,74.82233 c 0,0 -2.372231,-0.484896 -4.144722,-2.94347 -8.63794,-10.625421 3.517414,-37.586529 -5.055476,-38.726166 -0.0675,-0.009 -0.136104,-0.01627 -0.206198,-0.02202 -5.200243,-0.400891 -9.759536,13.58323 -15.24289,12.885635 -2.529982,-0.321866 -6.998877,-0.420086 -10.628905,-0.475196 -3.586422,-0.05445 -13.483543,-14.971179 -17.621615,-11.942638 -4.423819,3.237671 1.515205,21.928253 -0.553825,25.047334 -2.330333,3.512996 -3.661413,7.519868 -3.506842,11.722336 0.27178,7.389109 4.496069,14.384102 9.425976,20.383138 2.833253,3.64233 2.472895,9.472058 3.091154,16.223058 0.720755,7.87018 8.891968,25.08192 11.593173,30.7649 3.032827,5.80809 -1.809694,34.29848 -3.692084,36.96867 -1.171075,1.66118 -4.704956,0.63522 -5.343598,6.4158 -0.170084,1.5395 2.836715,4.32458 2.836715,4.32458 1.276936,12.25183 20.115716,6.30541 23.951734,-1.03927"
     id="path4269" />
  <path
     style="opacity:1;fill:#ffffff;fill-opacity:1;stroke:none;stroke-width:1.8;stroke-linecap:round;stroke-linejoin:round;stroke-miterlimit:4;stroke-dasharray:none;stroke-dashoffset:0;stroke-opacity:1"
     d="M 29.02894598,57.16506648 A 4.544120316,4.544120316 0 0 0 24.58456122,61.48050517 4.544120316,4.544120316 0 0 0 28.89541807,66.24649146 4.544120316,4.544120316 0 0 0 33.66162254,61.93563461 4.544120316,4.544120316 0 0 0 29.67105812,57.19713936 4.544120316,4.544120316 0 0 0 29.35032933,57.16964832 4.544120316,4.544120316 0 0 0 29.02894598,57.16506648 Z M 48.60562083,58.35307213 A 4.811884906,4.811884906 0 0 0 43.89919846,62.92291203 4.811884906,4.811884906 0 0 0 48.46423834,67.96948146 4.811884906,4.811884906 0 0 0 53.51102596,63.40487795 4.811884906,4.811884906 0 0 0 49.2854786,58.38710865 4.811884906,4.811884906 0 0 0 48.94620426,58.35809033 4.811884906,4.811884906 0 0 0 48.60562083,58.35307213 Z M 29.44174794,59.17736695 A 2.556067811,2.556067811 0 0 1 29.69724007,59.17736695 2.556067811,2.556067811 0 0 1 29.95142309,59.20289435 2.556067811,2.556067811 0 0 1 32.12212432,61.85839788 2.556067811,2.556067811 0 0 1 29.44109339,64.28328213 2.556067811,2.556067811 0 0 1 27.01642733,61.60246939 2.556067811,2.556067811 0 0 1 29.44174794,59.17736695 Z M 47.81841709,60.47817314 A 2.556067811,2.556067811 0 0 1 48.07390921,60.47817314 2.556067811,2.556067811 0 0 1 48.32809224,60.50370053 2.556067811,2.556067811 0 0 1 48.32831042,60.50370053 2.556067811,2.556067811 0 0 1 50.49901164,63.15898588 2.556067811,2.556067811 0 0 1 47.8181989,65.58365194 2.556067811,2.556067811 0 0 1 45.39309647,62.9028392 2.556067811,2.556067811 0 0 1 47.81841709,60.47817314 Z M 33.95835122,75.66108165 C 33.27803705,75.64719363 33.01023885,75.7572714 32.99725575,76.21679338 32.89563769,78.24351632 34.45622209,79.9689391 36.48294504,80.07055715 38.50966799,80.17217522 40.23509075,78.61159082 40.33670881,76.58486786 40.32101668,76.25913468 40.01631388,76.09798364 39.31648578,75.99991962 38.77217506,75.9236476 37.98866095,75.88565671 36.91647437,75.83802795 36.84796663,75.84143689 36.78805872,75.87322882 36.76811003,75.93184657 36.63935603,76.29564348 36.48061764,76.772753 36.34178073,77.28196208 36.05957486,78.31700205 36.21765382,79.42534939 36.03392472,79.00669755 35.8815912,78.65958473 35.71273142,77.7451202 36.19734368,75.93926479 36.2297579,75.84736613 36.15064641,75.80106414 36.08476133,75.79744593 35.26053004,75.75304466 34.75472437,75.70071315 34.27558909,75.67395444 34.16110721,75.66756086 34.05553896,75.66306567 33.95835122,75.66108165 Z"
     id="path4267" />
  <path
     style="font-style:normal;font-weight:normal;font-size:medium;line-height:125%;font-family:sans-serif;letter-spacing:0px;word-spacing:0px;opacity:1;fill:#000000;fill-opacity:0;stroke:#ffa1c3;stroke-width:1.8;stroke-linecap:round;stroke-linejoin:round;stroke-miterlimit:4;stroke-dasharray:3.2,3.2;stroke-dashoffset:0;stroke-opacity:1"
     d="M 163.40297,100.65044 C 178.96303,92.124366 186.08347,75.36417 186.303,63.71317 186.77772,38.519627 177.34244,20.335419 135.1136,18.996594 L 86.473437,19.234414 74.331102,103.61021"
     id="path4191" />
  <path
     style="font-style:normal;font-weight:normal;font-size:medium;line-height:125%;font-family:sans-serif;letter-spacing:0px;word-spacing:0px;opacity:1;fill:#000000;fill-opacity:0;stroke:#94eaff;stroke-width:1.8;stroke-linecap:round;stroke-linejoin:round;stroke-miterlimit:4;stroke-dasharray:3.2,3.2;stroke-dashoffset:0;stroke-opacity:1"
     d="m 74.331125,103.61009 -12.260786,88.78318 c 0,0 66.167971,0.68843 79.640891,-1.76641 28.86736,-5.25977 45.72659,-22.65514 48.82452,-46.89622 2.86355,-22.4071 -7.63264,-36.69594 -27.13278,-43.0802"
     id="ellipse4193" />
  <path
     id="path4202"
     d="M 133.6362567,96.75730949 C 105.679617,96.80563894 74.33110204,103.6102148 74.33110204,103.6102148 74.33110204,103.6102148 118.7168769,115.8243147 147.3697765,107.1445588 153.7057471,105.225218 158.9853086,103.0709717 163.4029436,100.6503462 160.4020117,99.66786132 157.1899026,98.87064971 153.7782433,98.26189845 147.6681935,97.17166636 140.7624588,96.74499021 133.6362567,96.75730949 Z"
     style="font-style:normal;font-weight:normal;font-size:medium;line-height:125%;font-family:sans-serif;letter-spacing:0px;word-spacing:0px;opacity:1;fill:#000000;fill-opacity:0;stroke:#9494c3;stroke-width:1.8;stroke-linecap:round;stroke-linejoin:round;stroke-miterlimit:4;stroke-dasharray:3.2,3.2;stroke-dashoffset:0;stroke-opacity:1" />
</svg>
