<?xml version="1.0" encoding="UTF-8" standalone="no"?>
<svg
   xmlns:dc="http://purl.org/dc/elements/1.1/"
   xmlns:cc="http://creativecommons.org/ns#"
   xmlns:rdf="http://www.w3.org/1999/02/22-rdf-syntax-ns#"
   xmlns:svg="http://www.w3.org/2000/svg"
   xmlns="http://www.w3.org/2000/svg"
   id="svg2"
   preserveAspectRatio="xMidYMid meet"
   viewBox="0 0 204.8 204.8"
   height="256"
   width="256"
   version="1.0">
  <defs
     id="defs12" />
  <metadata
     id="metadata4">
<rdf:RDF>
  <cc:Work
     rdf:about="">
    <dc:format>image/svg+xml</dc:format>
    <dc:type
       rdf:resource="http://purl.org/dc/dcmitype/StillImage" />
    <dc:title></dc:title>
  </cc:Work>
</rdf:RDF>
</metadata>
  <g
     transform="translate(0,-1075.2)"
     style="display:inline"
     id="layer2" />
  <path
     id="path4269"
     d="M 62.94741193,33.15269357 C 62.87990873,33.14372005 62.81130772,33.13642453 62.74121398,33.13067344 57.5409712,32.72978217 52.98167774,46.71390322 47.49832354,46.01630763 44.96834162,45.69444179 40.49944736,45.59622198 36.86941918,45.54111217 33.28299714,45.4866644 23.38587569,30.56993264 19.24780375,33.59847361 14.82398501,36.83614485 20.7630089,55.52672712 18.69397858,58.64580775 16.36364605,62.15880359 15.03256642,66.16567626 15.18713749,70.36814383 15.45891653,77.75725295 19.68320582,84.75224645 24.61311257,90.75128197 27.44636573,94.39361184 27.0860078,100.2233353 27.70426722,106.9743358 28.42502175,114.8445182 36.5962354,132.0562603 39.29744024,137.7392362 42.33026654,143.5473299 37.48774576,172.0377236 35.60535611,174.7079087 34.43428083,176.3690888 30.90040042,175.3431281 30.26175847,181.1237106 30.09167373,182.66321 33.09847281,185.4482872 33.09847281,185.4482872 34.37540874,197.7001176 53.21418875,191.7537033 57.05020737,184.4090197 L 72.14760971,74.82232955 C 72.14760971,74.82232955 69.77537937,74.33743363 68.00288825,71.87886021 59.36494817,61.25343938 71.52030224,34.2923314 62.94741193,33.15269357 Z"
     style="opacity:1;fill:#9494c3;fill-opacity:1;stroke:none;stroke-width:10;stroke-linecap:round;stroke-linejoin:round;stroke-miterlimit:4;stroke-dasharray:none;stroke-dashoffset:0;stroke-opacity:1" />
  <path
     id="path4267"
     d="M 29.02894598,57.16506648 A 4.544120316,4.544120316 0 0 0 24.58456122,61.48050517 4.544120316,4.544120316 0 0 0 28.89541807,66.24649146 4.544120316,4.544120316 0 0 0 33.66162254,61.93563461 4.544120316,4.544120316 0 0 0 29.67105812,57.19713936 4.544120316,4.544120316 0 0 0 29.35032933,57.16964832 4.544120316,4.544120316 0 0 0 29.02894598,57.16506648 Z M 48.60562083,58.35307213 A 4.811884906,4.811884906 0 0 0 43.89919846,62.92291203 4.811884906,4.811884906 0 0 0 48.46423834,67.96948146 4.811884906,4.811884906 0 0 0 53.51102596,63.40487795 4.811884906,4.811884906 0 0 0 49.2854786,58.38710865 4.811884906,4.811884906 0 0 0 48.94620426,58.35809033 4.811884906,4.811884906 0 0 0 48.60562083,58.35307213 Z M 29.44174794,59.17736695 A 2.556067811,2.556067811 0 0 1 29.69724007,59.17736695 2.556067811,2.556067811 0 0 1 29.95142309,59.20289435 2.556067811,2.556067811 0 0 1 32.12212432,61.85839788 2.556067811,2.556067811 0 0 1 29.44109339,64.28328213 2.556067811,2.556067811 0 0 1 27.01642733,61.60246939 2.556067811,2.556067811 0 0 1 29.44174794,59.17736695 Z M 47.81841709,60.47817314 A 2.556067811,2.556067811 0 0 1 48.07390921,60.47817314 2.556067811,2.556067811 0 0 1 48.32809224,60.50370053 2.556067811,2.556067811 0 0 1 48.32831042,60.50370053 2.556067811,2.556067811 0 0 1 50.49901164,63.15898588 2.556067811,2.556067811 0 0 1 47.8181989,65.58365194 2.556067811,2.556067811 0 0 1 45.39309647,62.9028392 2.556067811,2.556067811 0 0 1 47.81841709,60.47817314 Z M 33.95835122,75.66108165 C 33.27803705,75.64719363 33.01023885,75.7572714 32.99725575,76.21679338 32.89563769,78.24351632 34.45622209,79.9689391 36.48294504,80.07055715 38.50966799,80.17217522 40.23509075,78.61159082 40.33670881,76.58486786 40.32101668,76.25913468 40.01631388,76.09798364 39.31648578,75.99991962 38.77217506,75.9236476 37.98866095,75.88565671 36.91647437,75.83802795 36.84796663,75.84143689 36.78805872,75.87322882 36.76811003,75.93184657 36.63935603,76.29564348 36.48061764,76.772753 36.34178073,77.28196208 36.05957486,78.31700205 36.21765382,79.42534939 36.03392472,79.00669755 35.8815912,78.65958473 35.71273142,77.7451202 36.19734368,75.93926479 36.2297579,75.84736613 36.15064641,75.80106414 36.08476133,75.79744593 35.26053004,75.75304466 34.75472437,75.70071315 34.27558909,75.67395444 34.16110721,75.66756086 34.05553896,75.66306567 33.95835122,75.66108165 Z"
     style="opacity:1;fill:#ffffff;fill-opacity:1;stroke:none;stroke-width:10;stroke-linecap:round;stroke-linejoin:round;stroke-miterlimit:4;stroke-dasharray:none;stroke-dashoffset:0;stroke-opacity:1" />
  <path
     id="path4191"
     d="M 135.1135956,18.9965942 86.47343714,19.23441351 74.3311249,103.6100872 74.33156126,103.6103054 163.4029664,100.6504368 C 178.9630317,92.12436641 186.0834654,75.36416996 186.3030024,63.71317033 186.7777186,38.51962717 177.3424412,20.33541858 135.1135956,18.9965942 Z"
     style="font-style:normal;font-weight:normal;font-size:medium;line-height:125%;font-family:sans-serif;letter-spacing:0px;word-spacing:0px;opacity:1;fill:#ffa1c3;fill-opacity:1;stroke:none;stroke-width:10;stroke-linecap:round;stroke-linejoin:round;stroke-miterlimit:4;stroke-dasharray:none;stroke-dashoffset:0;stroke-opacity:1" />
  <path
     id="ellipse4193"
     d="M 163.4029664,100.6504368 74.3311249,103.6103054 62.07033936,192.3932727 C 62.07033936,192.3932727 128.2383129,193.0816957 141.7112269,190.6268643 170.5785901,185.3670882 187.4378211,167.9717182 190.5357498,143.7306415 193.3993048,121.3235371 182.9031137,107.0347039 163.4029664,100.6504368 Z"
     style="font-style:normal;font-weight:normal;font-size:medium;line-height:125%;font-family:sans-serif;letter-spacing:0px;word-spacing:0px;opacity:1;fill:#94eaff;fill-opacity:1;stroke:none;stroke-width:10;stroke-linecap:round;stroke-linejoin:round;stroke-miterlimit:4;stroke-dasharray:none;stroke-dashoffset:0;stroke-opacity:1" />
  <path
     style="font-style:normal;font-weight:normal;font-size:medium;line-height:125%;font-family:sans-serif;letter-spacing:0px;word-spacing:0px;opacity:1;fill:#9494c3;fill-opacity:1;stroke:none;stroke-width:10;stroke-linecap:round;stroke-linejoin:round;stroke-miterlimit:4;stroke-dasharray:none;stroke-dashoffset:0;stroke-opacity:1"
     d="M 133.6362567,96.75730949 C 105.679617,96.80563894 74.33110204,103.6102148 74.33110204,103.6102148 74.33110204,103.6102148 118.7168769,115.8243147 147.3697765,107.1445588 153.7057471,105.225218 158.9853086,103.0709717 163.4029436,100.6503462 160.4020117,99.66786132 157.1899026,98.87064971 153.7782433,98.26189845 147.6681935,97.17166636 140.7624588,96.74499021 133.6362567,96.75730949 Z"
     id="path4202" />
</svg>
